<?xml version="1.0" encoding="UTF-8"?>
<svg width="18px" height="18px" viewBox="0 0 18 18" version="1.1" xmlns="http://www.w3.org/2000/svg" xmlns:xlink="http://www.w3.org/1999/xlink">
    <title>点赞@2x</title>
    <g id="页面-1" stroke="none" stroke-width="1" fill="none" fill-rule="evenodd">
        <g id="社区/Posts" transform="translate(-160, -798)" fill="#AAF218">
            <g id="编组-4" transform="translate(12, 688)">
                <g id="点赞" transform="translate(148, 110)">
                    <g transform="translate(1, 1)" id="形状结合">
                        <path d="M9.58917047,5.59996819 L9.58917047,2.39999399 C9.58917047,1.07450689 8.51590362,0 7.19190005,0 L3.99553949,7.19995529 L3.99553949,15.9999881 L13.2809669,15.9999881 C14.0778818,16.0089065 14.7596832,15.4287334 14.8791472,14.6398953 L15.9818916,7.43995336 C16.0522559,6.97582376 15.9154783,6.50418312 15.6078286,6.14996376 C15.3001345,5.79574439 14.8525996,5.5946349 14.3837113,5.59996819 L9.58917047,5.59996819 Z M3.9954507,7.11120045 L1.86188003,7.11120045 C0.925754806,7.09462281 0.125501546,7.87092766 0,8.79976462 L0,14.3997195 C0.125501546,15.3286009 0.925754806,16.0162842 1.86188003,15.9997066 L3.9954507,15.9997066 L3.9954507,7.11120045 Z"></path>
                    </g>
                </g>
            </g>
        </g>
    </g>
</svg>