<?xml version="1.0" encoding="UTF-8"?>
<svg width="36px" height="36px" viewBox="0 0 36 36" version="1.1" xmlns="http://www.w3.org/2000/svg" xmlns:xlink="http://www.w3.org/1999/xlink">
    <title>播放@2x</title>
    <g id="页面-1" stroke="none" stroke-width="1" fill="none" fill-rule="evenodd">
        <g id="社区" transform="translate(-170, -282)" fill="#FFFFFF" fill-rule="nonzero">
            <g id="播放" transform="translate(170, 282)">
                <path d="M18,0 C27.9413015,0 36,8.05869848 36,18 C36,27.9413015 27.9413015,36 18,36 C8.05869848,36 0,27.9413015 0,18 C0,8.05869848 8.05869848,0 18,0 Z M15.4905905,11.6470647 C14.5376502,11.6470647 13.7647263,12.4199886 13.7647263,13.3729289 L13.7647263,22.4555419 C13.7651263,23.0863538 14.1096523,23.6666941 14.6632608,23.9690872 C15.2168692,24.2714803 15.891354,24.2477461 16.4223378,23.9071876 L23.5598607,19.3214106 C24.056168,19.0024199 24.3551414,18.4520085 24.3525835,17.8620345 C24.3499926,17.2720605 24.0462271,16.7242791 23.5471548,16.409632 L16.409632,11.9128457 C16.1341659,11.7392369 15.8152074,11.6470647 15.4895979,11.6470647 L15.4905905,11.6470647 Z" id="形状"></path>
            </g>
        </g>
    </g>
</svg>