<?xml version="1.0" encoding="UTF-8"?>
<svg width="493.28px" height="71.83px" viewBox="0 0 493.28 71.83" version="1.1" xmlns="http://www.w3.org/2000/svg" xmlns:xlink="http://www.w3.org/1999/xlink">
    <title>AppLogo</title>
    <g id="页面-1" stroke="none" stroke-width="1" fill="none" fill-rule="evenodd">
        <g id="Logo" fill="#FFFFFF">
            <path d="M86.28,342.31H60.17c1.36,1.66,3.85,4.28,3.23,7.2L49.15,414.13h21Z" transform="translate(-49.15 -342.3)"></path>
            <path d="M130.38,342.31H104.27c1.36,1.66,3.85,4.28,3.23,7.2L93.25,414.13h21Z" transform="translate(-49.15 -342.3)"></path>
            <path d="M207.61,342.31H185.12c-6.78,8.68-13.84,17.66-20.2,26.62l-9-26.62H134.32a67.32,67.32,0,0,0,3,9.65c4.08,11.36,8.78,22.52,12.83,33.9l-6,28.27h21.06c2.77-9.09,4.09-18.85,6.52-28.08,11.51-13.09,21.9-28.3,33.64-41.06Z" transform="translate(-49.15 -342.3)"></path>
            <path d="M212.94,343.22c1.31,1.82,3.16,3.76,2.54,6.29-4.68,21.6-10.09,42.91-14.2,64.62h20.8l6.7-28.11,18.91,28.11h25.72l-26.78-36.6,37.85-35.22H259.79c-9,7.51-17.63,16-26.72,23.29l4.9-23.29H212.26Z" transform="translate(-49.15 -342.3)"></path>
            <path d="M418.75,342.31H392.64c1,1.82,3.27,5,3.25,7.2l-11.8,53c-.66,6.79,1.84,10.05,8.31,11.43,15.5.41,32-.11,48.17,0,4.67,0,8.36-3.31,10-7.72l14.3-63.92H440c.71,1.26,2.42,4.36,2.41,6l-12,51.61A1.42,1.42,0,0,1,429,401H406.69c-.3,0-.79-.89-.53-1.33Z" transform="translate(-49.15 -342.3)"></path>
            <path d="M345.91,342.37c-15.07,0-47.14-.16-47.81,0-4.67.83-8.69,4.88-10.24,9.39-3.87,16.5-7.95,33.68-11,49.59-1.4,7.24,1,11.19,8.23,12.76,15.43,0,33.28,0,47.77-.17,5.41-.06,9.28-4.47,10.6-9.59,4.17-16.25,7.85-33,11.16-50.26C355.81,347.81,352,342.37,345.91,342.37ZM321.53,401H299.85a.88.88,0,0,1-.85-1.08l9.61-43.63a.87.87,0,0,1,.85-.7h21.67a.88.88,0,0,1,.85,1.09l-9.6,43.63A.87.87,0,0,1,321.53,401Z" transform="translate(-49.15 -342.3)"></path>
            <polygon points="323.28 71.83 339.13 0.01 318.25 0.01 301.66 71.83 323.28 71.83"></polygon>
            <path d="M496.33,342.31H470.21c1,1.82,3.28,5,3.26,7.2l-11.8,53C461,409.31,463.5,412.57,470,414c15.49.41,32-.11,48.17,0,4.67,0,8.36-3.31,10-7.72l14.3-63.92H517.54c.71,1.26,2.43,4.36,2.41,6l-12,51.61A1.42,1.42,0,0,1,506.6,401H484.26c-.29,0-.78-.89-.53-1.33Z" transform="translate(-49.15 -342.3)"></path>
            <path d="M70.17,414.13H49.27s18.45-49.38,86.89-43.38C136.16,370.75,85.42,379.11,70.17,414.13Z" transform="translate(-49.15 -342.3)"></path>
        </g>
    </g>
</svg>