<?xml version="1.0" encoding="UTF-8"?>
<svg width="18px" height="18px" viewBox="0 0 18 18" version="1.1" xmlns="http://www.w3.org/2000/svg" xmlns:xlink="http://www.w3.org/1999/xlink">
    <title>Invitation Code@2x</title>
    <g id="页面-1" stroke="none" stroke-width="1" fill="none" fill-rule="evenodd" stroke-linecap="round" stroke-linejoin="round">
        <g id="登录/Register" transform="translate(-28, -523)" stroke="#999999">
            <g id="编组备份-4" transform="translate(12, 480)">
                <g id="Invitation-Code" transform="translate(16, 43)">
                    <g id="编组" transform="translate(1, 1)">
                        <circle id="椭圆形" cx="4" cy="10" r="2"></circle>
                        <circle id="椭圆形" cx="12" cy="10" r="2"></circle>
                        <circle id="椭圆形" cx="8" cy="2" r="2"></circle>
                        <path d="M8,16 C8,13.79088 6.20912,12 4,12 C1.79086,12 0,13.79088 0,16" id="路径"></path>
                        <path d="M16,16 C16,13.79088 14.20912,12 12,12 C9.79088,12 8,13.79088 8,16" id="路径"></path>
                        <path d="M12,8 C12,5.79088 10.20912,4 8,4 C5.79088,4 4,5.79088 4,8" id="路径"></path>
                    </g>
                </g>
            </g>
        </g>
    </g>
</svg>