<?xml version="1.0" encoding="UTF-8"?>
<svg width="18px" height="18px" viewBox="0 0 18 18" version="1.1" xmlns="http://www.w3.org/2000/svg" xmlns:xlink="http://www.w3.org/1999/xlink">
    <title>Username@2x</title>
    <g id="页面-1" stroke="none" stroke-width="1" fill="none" fill-rule="evenodd" stroke-linecap="round" stroke-linejoin="round">
        <g id="登录/Login" transform="translate(-28, -245)" stroke="#999999">
            <g id="编组备份" transform="translate(12, 202)">
                <g id="Username" transform="translate(16, 43)">
                    <path d="M1.00156773,16.6762526 C1.00156773,16.8550316 1.15076762,17 1.33482643,17 L16.6641162,17 C16.8481582,17 16.9973791,16.8550737 16.9973791,16.6763368 L16.9973791,16.2897263 C17.0050423,16.173221 17.0206212,15.5917894 16.6373794,14.9490105 C16.3956954,14.5437052 16.0449588,14.1935578 15.5948538,13.9083367 C15.050349,13.5632841 14.3576758,13.313263 13.5198659,13.1627367 C13.5136764,13.1619367 12.8924558,13.0795788 12.2560352,12.9170525 C11.1477834,12.6339788 11.0508993,12.3834525 11.0502677,12.3810104 C11.0437414,12.3562525 11.0343098,12.332463 11.0222256,12.3101051 C11.013173,12.2633682 10.990773,12.0874946 11.033594,11.6162524 C11.1423097,10.4193682 11.7843303,9.71199973 12.3002036,9.14366287 C12.4628983,8.96442076 12.6165402,8.79511549 12.7348981,8.62909443 C13.2453398,7.91288388 13.2927082,7.09848385 13.2948555,7.04799964 C13.2948555,6.94572595 13.2831082,6.86164174 13.2579714,6.78370489 C13.2078661,6.62774699 13.1135925,6.53056804 13.0447505,6.45962067 L13.0442873,6.45911541 C13.0269399,6.44126277 13.010561,6.42433646 12.9971715,6.40879961 C12.9920768,6.40286277 12.9785189,6.38715751 12.9908558,6.30652593 C13.036161,6.00972592 13.063361,5.76122064 13.0764136,5.52446274 C13.0996557,5.1026522 13.117803,4.47183112 13.0090031,3.85789426 C12.9955715,3.75305215 12.9724979,3.6423153 12.9365821,3.51039951 C12.8216348,3.08763739 12.6369613,2.72619316 12.380372,2.42789 C12.3362457,2.37988157 11.2634044,1.24959943 8.14896458,1.01768784 C7.71831227,0.98562468 7.29258626,1.00289626 6.87351289,1.02431521 C6.77250243,1.02930889 6.63418675,1.03616363 6.50475526,1.06970047 C6.1831976,1.15299732 6.09738714,1.35681206 6.07486084,1.47087943 C6.0375135,1.6598226 6.10315556,1.80679945 6.14656605,1.90407524 L6.14656605,1.90408366 L6.14656605,1.90409629 C6.15288184,1.91819735 6.1606713,1.93563314 6.14707131,1.98103945 C6.07477663,2.09300156 5.9610504,2.19394051 5.84509259,2.28956999 C5.81157682,2.3180542 5.03060898,2.9914437 4.98766164,3.87111531 C4.87187225,4.54012586 4.88063014,5.58248379 5.01755636,6.30290487 C5.02551424,6.34269435 5.0372616,6.40159961 5.01818793,6.44138909 L5.01818793,6.44138909 C4.87094594,6.57334699 4.7040408,6.72290489 4.70446185,7.06416806 C4.70623027,7.09848385 4.75359865,7.91288388 5.26408249,8.62909443 C5.38231398,8.79498917 5.53582966,8.96416813 5.69839796,9.14328392 L5.69877691,9.14366287 L5.69877691,9.14370498 C6.21465021,9.71204184 6.85662869,10.4193682 6.9653865,11.6162103 C7.00816542,12.0874525 6.98576544,12.2633682 6.97671281,12.310063 C6.96462861,12.3324209 6.95519704,12.3562104 6.94871283,12.3809683 C6.94803915,12.3834104 6.85153396,12.6331367 5.74829266,12.9156209 C5.11182997,13.0786104 4.48526201,13.1618946 4.46656729,13.1645893 C3.65237841,13.3020209 2.96394944,13.5458104 2.42042563,13.8890525 C1.97184491,14.1723788 1.62043885,14.5231578 1.37595482,14.9316631 C0.985336161,15.5843789 0.995896153,16.178821 1.00156773,16.2873263 L1.00156773,16.6762526 Z" id="路径"></path>
                </g>
            </g>
        </g>
    </g>
</svg>