<?xml version="1.0" encoding="UTF-8"?>
<svg width="24px" height="24px" viewBox="0 0 24 24" version="1.1" xmlns="http://www.w3.org/2000/svg" xmlns:xlink="http://www.w3.org/1999/xlink">
    <title>收藏@2x</title>
    <g id="页面-1" stroke="none" stroke-width="1" fill="none" fill-rule="evenodd">
        <g id="首页/videos1" transform="translate(-300, -483)" fill="#AAF218" fill-rule="nonzero">
            <g id="编组-8" transform="translate(12, 358)">
                <g id="编组-7" transform="translate(39, 125)">
                    <g id="收藏" transform="translate(249, 0)">
                        <path d="M18.0882653,24 C17.7527861,24 17.3710339,23.9038076 17.0239864,23.7114228 L12.0033665,21.1022044 L6.94804194,23.7114228 C6.62413098,23.8917836 6.26551528,23.987976 5.88376308,23.987976 C5.39789664,23.987976 4.92359845,23.8316633 4.54184625,23.5310621 C3.83618309,22.9779559 3.47756739,22.0280561 3.63952287,21.1503006 L4.66909699,15.5831663 L0.701187744,11.747495 C0.0880705726,11.0981964 -0.143294398,10.1723447 0.0880705726,9.29458918 L0.0996388211,9.27054108 C0.388845034,8.36873747 1.10607644,7.74348697 1.97369508,7.62324649 L7.48018137,6.57715431 L9.94421831,1.35871743 C10.3375388,0.529058116 11.1473162,0 12.0033665,0 C12.8941217,0 13.7270356,0.553106212 14.074083,1.37074148 L16.53812,6.57715431 L22.0446063,7.5751503 C22.9122249,7.70741483 23.6410246,8.35671343 23.8839578,9.24649299 C24.1615957,10.1122244 23.9302308,11.0621242 23.3055453,11.7114228 L23.2939771,11.7234469 L19.3492044,15.5951904 L20.3440737,21.1743487 C20.5060292,22.0641283 20.1589817,22.9659319 19.4533186,23.5310621 C19.0484299,23.8316633 18.5741317,24 18.0882653,24 Z" id="路径"></path>
                    </g>
                </g>
            </g>
        </g>
    </g>
</svg>