<?xml version="1.0" encoding="UTF-8"?>
<svg width="24px" height="24px" viewBox="0 0 24 24" version="1.1" xmlns="http://www.w3.org/2000/svg" xmlns:xlink="http://www.w3.org/1999/xlink">
    <title>点赞备份@2x</title>
    <g id="页面-1" stroke="none" stroke-width="1" fill="none" fill-rule="evenodd">
        <g id="首页/videos" transform="translate(-51, -483)" fill="#999999">
            <g id="编组-8" transform="translate(12, 358)">
                <g id="编组-7" transform="translate(39, 125)">
                    <g id="点赞" transform="translate(1.3333, 1.3333)">
                        <path d="M12.7855606,7.46662425 L12.7855606,3.19999198 C12.7855606,1.43267586 11.3545382,0 9.58920006,0 L5.32738598,9.59994039 L5.32738598,21.3333175 L17.7079559,21.3333175 C18.770509,21.3452087 19.6795776,20.5716445 19.8388629,19.5198604 L21.3091888,9.91993781 C21.4030079,9.30109835 21.2206378,8.67224416 20.8104382,8.19995167 C20.4001794,7.72765918 19.8034662,7.4595132 19.1782817,7.46662425 L12.7855606,7.46662425 Z M5.3272676,9.4816006 L2.4825067,9.4816006 C1.23433974,9.45949708 0.167335395,10.4945702 0,11.7330195 L0,19.199626 C0.167335395,20.4381345 1.23433974,21.3550456 2.4825067,21.3329421 L5.3272676,21.3329421 L5.3272676,9.4816006 Z" id="形状结合"></path>
                    </g>
                </g>
            </g>
        </g>
    </g>
</svg>