<?xml version="1.0" encoding="UTF-8"?>
<svg width="12px" height="12px" viewBox="0 0 12 12" version="1.1" xmlns="http://www.w3.org/2000/svg" xmlns:xlink="http://www.w3.org/1999/xlink">
    <title>难度@2x</title>
    <g id="页面-1" stroke="none" stroke-width="1" fill="none" fill-rule="evenodd">
        <g id="首页2" transform="translate(-250, -659)" fill="#999999" fill-rule="nonzero">
            <g id="编组-8备份" transform="translate(12, 580)">
                <g id="编组-7" transform="translate(182, 8)">
                    <g id="编组-6" transform="translate(0, 70)">
                        <g id="编组-5" transform="translate(56, 0)">
                            <g id="难度" transform="translate(0, 1)">
                                <path d="M9.04413263,12 C8.87639303,12 8.68551693,11.9519038 8.5119932,11.8557114 L6.00168327,10.5511022 L3.47402097,11.8557114 C3.31206549,11.9458918 3.13275764,11.993988 2.94188154,11.993988 C2.69894832,11.993988 2.46179923,11.9158317 2.27092313,11.7655311 C1.91809155,11.488978 1.73878369,11.0140281 1.81976143,10.5751503 L2.33454849,7.79158317 L0.350593872,5.87374749 C0.0440352863,5.5490982 -0.0716471989,5.08617234 0.0440352863,4.64729459 L0.0498194106,4.63527054 C0.194422517,4.18436874 0.553038221,3.87174349 0.98684754,3.81162325 L3.74009069,3.28857715 L4.97210915,0.679358717 C5.16876938,0.264529058 5.57365808,0 6.00168327,0 C6.44706084,0 6.86351779,0.276553106 7.03704151,0.685370741 L8.26905998,3.28857715 L11.0223031,3.78757515 C11.4561124,3.85370741 11.8205123,4.17835671 11.9419789,4.62324649 C12.0807979,5.05611222 11.9651154,5.53106212 11.6527727,5.85571142 L11.6469885,5.86172345 L9.67460218,7.79759519 L10.1720369,10.5871743 C10.2530146,11.0320641 10.0794909,11.4829659 9.72665929,11.7655311 C9.52421495,11.9158317 9.28706585,12 9.04413263,12 Z" id="路径"></path>
                            </g>
                        </g>
                    </g>
                </g>
            </g>
        </g>
    </g>
</svg>