<?xml version="1.0" encoding="UTF-8"?>
<svg width="28px" height="28px" viewBox="0 0 28 28" version="1.1" xmlns="http://www.w3.org/2000/svg" xmlns:xlink="http://www.w3.org/1999/xlink">
    <title>社区-未选中@2x</title>
    <defs>
        <rect id="path-1" x="0" y="0" width="28" height="28"></rect>
        <linearGradient x1="50%" y1="0%" x2="50%" y2="100%" id="linearGradient-3">
            <stop stop-color="#CDF815" offset="0%"></stop>
            <stop stop-color="#9EEE09" offset="100%"></stop>
        </linearGradient>
    </defs>
    <g id="页面-1" stroke="none" stroke-width="1" fill="none" fill-rule="evenodd">
        <g id="我的" transform="translate(-174, -736)">
            <g id="3" transform="translate(12, 722)">
                <g id="社区-未选中" transform="translate(162, 14)">
                    <mask id="mask-2" fill="white">
                        <use xlink:href="#path-1"></use>
                    </mask>
                    <g id="Clip" fill-rule="nonzero"></g>
                    <g id="社区" mask="url(#mask-2)" fill="url(#linearGradient-3)" fill-rule="nonzero">
                        <g transform="translate(3, 3)" id="形状">
                            <path d="M21.1020408,6.71526195 C20.553288,5.41230067 19.755102,4.2095672 18.7573696,3.2072893 L18.6077097,3.0569476 C16.5623583,1.1025057 13.8185941,0 10.9750567,0 C8.03174603,0 5.28798186,1.1526196 3.19274377,3.2072893 L3.19274377,3.25740318 C1.1473923,5.36218679 0,8.11845103 0,11.025057 C0,12.2277904 0.199546487,13.3302961 0.548752834,14.4328018 C0.897959181,15.4350797 1.34693878,16.3872437 1.94557822,17.2892939 L2.04535148,17.3895216 L2.04535148,21.5990888 C2.04535148,21.7995444 2.24489796,22 2.44444445,22 L10.9750567,22 C12.4716553,22 13.8684807,21.6993166 15.2653061,21.1480638 C16.5623583,20.5968109 17.7596372,19.7949886 18.7573696,18.7927107 L18.9070295,18.642369 C20.9024943,16.5876993 22,13.881549 22,10.974943 C21.9501134,9.52164009 21.6507937,8.11845103 21.1020408,6.71526195 Z M14.9160998,12.7790433 L10.9750567,16.5876993 C10.9251701,16.6378132 10.8253968,16.6879271 10.7256236,16.6879271 C10.6258503,16.6879271 10.5759637,16.6378132 10.4761905,16.5876993 L6.58503401,12.8291572 L6.53514738,12.7790433 C5.58730158,11.8268793 5.33786848,10.6241458 5.78684806,9.47152619 C6.28571427,8.21867881 7.5328798,7.3667426 8.82993198,7.3667426 C9.42857144,7.3667426 10.0272109,7.56719818 10.5759637,7.91799545 L10.675737,7.96810935 L10.7755102,7.91799545 C11.324263,7.56719818 11.9229025,7.3667426 12.521542,7.3667426 C13.8185941,7.3667426 15.0657596,8.21867881 15.5646258,9.47152619 C16.1133787,10.6241458 15.8639456,11.8268793 14.9160998,12.7790433 L14.9160998,12.7790433 Z"></path>
                        </g>
                    </g>
                </g>
            </g>
        </g>
    </g>
</svg>