<?xml version="1.0" encoding="UTF-8"?>
<svg width="18px" height="18px" viewBox="0 0 18 18" version="1.1" xmlns="http://www.w3.org/2000/svg" xmlns:xlink="http://www.w3.org/1999/xlink">
    <title>off@2x</title>
    <g id="页面-1" stroke="none" stroke-width="1" fill="none" fill-rule="evenodd">
        <g id="我的/Reset-Password2" transform="translate(-329, -435)">
            <g id="编组备份-3" transform="translate(12, 392)">
                <g id="off" transform="translate(317, 43)">
                    <rect id="矩形" x="0" y="0" width="18" height="18"></rect>
                    <g id="编组" transform="translate(1, 2)" stroke="#AAF218" stroke-linecap="round" stroke-linejoin="round">
                        <path d="M2.343144,4.66666667 C0.895432,5.83333333 0,7 0,7 C0,7 3.58172,11.6666667 8,11.6666667 C8.54796,11.6666667 9.08304,11.5948778 9.6,11.46915 M6.41272,2.52777778 C6.92576,2.40395556 7.45656,2.33333333 8,2.33333333 C12.41828,2.33333333 16,7 16,7 C16,7 15.10456,8.16666667 13.65684,9.33333333" id="形状"></path>
                        <path d="M6.52568,5.68598333 C6.19924,6.03201667 6,6.49335556 6,6.99992222 C6,8.0738 6.89544,8.94436667 8,8.94436667 C8.54508,8.94436667 9.03924,8.73234444 9.4,8.38852778" id="路径"></path>
                        <line x1="15.2" y1="14" x2="0.8" y2="0" id="路径"></line>
                    </g>
                </g>
            </g>
        </g>
    </g>
</svg>