<?xml version="1.0" encoding="UTF-8"?>
<svg width="18px" height="18px" viewBox="0 0 18 18" version="1.1" xmlns="http://www.w3.org/2000/svg" xmlns:xlink="http://www.w3.org/1999/xlink">
    <title>Password@2x</title>
    <g id="页面-1" stroke="none" stroke-width="1" fill="none" fill-rule="evenodd" stroke-linecap="round" stroke-linejoin="round">
        <g id="我的/Reset-Password2" transform="translate(-329, -527)" stroke="#AAF218" stroke-width="0.941176471">
            <g id="编组备份-4" transform="translate(12, 484)">
                <g id="Password" transform="translate(317, 43)">
                    <g id="编组" transform="translate(1, 5)">
                        <path d="M8,9 C12.41828,9 16,4.5 16,4.5 C16,4.5 12.41828,0 8,0 C3.58172,0 0,4.5 0,4.5 C0,4.5 3.58172,9 8,9 Z" id="路径"></path>
                        <path d="M8,6.375 C9.10456,6.375 10,5.535525 10,4.5 C10,3.464475 9.10456,2.625 8,2.625 C6.89544,2.625 6,3.464475 6,4.5 C6,5.535525 6.89544,6.375 8,6.375 Z" id="路径"></path>
                    </g>
                </g>
            </g>
        </g>
    </g>
</svg>