<?xml version="1.0" encoding="UTF-8"?>
<svg width="18px" height="18px" viewBox="0 0 18 18" version="1.1" xmlns="http://www.w3.org/2000/svg" xmlns:xlink="http://www.w3.org/1999/xlink">
    <title>Privacy Policy@2x</title>
    <g id="页面-1" stroke="none" stroke-width="1" fill="none" fill-rule="evenodd" stroke-linecap="round" stroke-linejoin="round">
        <g id="我的" transform="translate(-28, -474)" stroke="#FFFFFF">
            <g id="1列备份-2" transform="translate(12, 456)">
                <g id="编组-12备份" transform="translate(16, 16)">
                    <g id="Privacy-Policy" transform="translate(0, 2)">
                        <g id="编组" transform="translate(1, 2)">
                            <path d="M8,0.823529412 L2.8,0.823529412 C2.13726,0.823529412 1.6,1.37657059 1.6,2.05882353 L1.6,10.7058824 L14.4,10.7058824 L14.4,8.64705882" id="路径"></path>
                            <path d="M0,10.7058824 L16,10.7058824 L16,11.5294118 C16,12.8938765 14.92548,14 13.6,14 L2.4,14 C1.074516,14 0,12.8938765 0,11.5294118 L0,10.7058824 Z" id="路径"></path>
                            <rect id="矩形" x="10.4" y="2.47058824" width="4.8" height="3.29411765" rx="1.23529412"></rect>
                            <path d="M12.8,0 C13.46276,0 14,0.553061765 14,1.23529412 L14,2.47058824 L11.6,2.47058824 L11.6,1.23529412 C11.6,0.553061765 12.13724,0 12.8,0 Z" id="路径"></path>
                        </g>
                    </g>
                </g>
            </g>
        </g>
    </g>
</svg>