<?xml version="1.0" encoding="UTF-8"?>
<svg width="28px" height="28px" viewBox="0 0 28 28" version="1.1" xmlns="http://www.w3.org/2000/svg" xmlns:xlink="http://www.w3.org/1999/xlink">
    <title>我的-选中@2x</title>
    <defs>
        <rect id="path-1" x="0" y="0" width="28" height="28"></rect>
    </defs>
    <g id="页面-1" stroke="none" stroke-width="1" fill="none" fill-rule="evenodd">
        <g id="我的" transform="translate(-266, -736)">
            <g id="3" transform="translate(12, 722)">
                <g id="我的-选中" transform="translate(254, 14)">
                    <mask id="mask-2" fill="white">
                        <use xlink:href="#path-1"></use>
                    </mask>
                    <g id="Clip" fill-rule="nonzero"></g>
                    <path d="M15,3 C20.5228475,3 25,7.4771525 25,13 L25,21 C25,23.209139 23.209139,25 21,25 L13,25 C7.4771525,25 3,20.5228475 3,15 L3,13 C3,7.4771525 7.4771525,3 13,3 L15,3 Z M18.0873016,16 C17.7216553,16 17.404195,16.1880232 17.2596372,16.4661945 C16.6842404,17.5866066 15.4342404,18.3618802 13.9886621,18.3618802 C12.5430839,18.3618802 11.3129252,17.5840309 10.7346939,16.4687701 C10.5816327,16.1880232 10.2726757,16 9.91269841,16 C9.40816327,16 9,16.370895 9,16.8267869 C9,16.9555699 9.03401361,17.0792015 9.09353741,17.1899549 C9.96938776,18.8512556 11.8373016,20 14.0028345,20 C16.1485261,20 18.005102,18.8692853 18.8922902,17.2285898 C18.957483,17.1075338 19,16.9710238 19,16.8267869 C19,16.370895 18.5918367,16.0025757 18.0873016,16 Z" id="形状结合" fill="#000000" fill-rule="nonzero" mask="url(#mask-2)"></path>
                </g>
            </g>
        </g>
    </g>
</svg>